<svg  viewBox="0 0 67 31" fill="none" xmlns="http://www.w3.org/2000/svg">
<g filter="url(#filter0_d_40_309)">
<path d="M22.951 20.358C23.1169 20.358 23.2445 20.4346 23.3339 20.5876C23.436 20.7407 23.487 20.9512 23.487 21.2191C23.487 21.7166 23.3658 22.112 23.1233 22.4054C21.8599 23.9489 20.5135 24.7206 19.0842 24.7206C17.8464 24.7206 16.8573 24.2423 16.1172 23.2856C15.377 22.3289 15.0069 20.9576 15.0069 19.1717C15.0069 18.738 15.026 18.3043 15.0643 17.8706C14.2221 18.0237 13.3032 18.1385 12.3078 18.215C11.6442 18.266 11.1912 18.2979 10.9487 18.3107C10.6935 19.6118 10.3361 21.2063 9.87673 23.0942C9.60874 24.204 9.09827 24.7589 8.34533 24.7589C7.52859 24.7589 7.12022 24.389 7.12022 23.6491C7.12022 23.4833 7.15212 23.2537 7.21593 22.9603C7.64983 21.2127 7.99439 19.733 8.24962 18.5211L7.33078 18.5594C6.90965 18.5594 6.60337 18.4893 6.41195 18.3489C6.22052 18.1959 6.12481 17.9535 6.12481 17.6218C6.12481 17.2009 6.24605 16.8947 6.48852 16.7034C6.73099 16.4993 7.13298 16.3845 7.69449 16.359L8.70904 16.3207C9.04084 14.5221 9.20674 13.1508 9.20674 12.2069C9.20674 11.6073 9.11741 11.1991 8.93875 10.9823C8.76009 10.7654 8.524 10.657 8.23048 10.657C7.33717 10.657 6.329 11.4032 5.20597 12.8957C5.04007 13.1125 4.85503 13.221 4.65084 13.221C4.47218 13.221 4.31904 13.1381 4.19142 12.9722C4.06381 12.8064 4 12.5959 4 12.3408C4 11.9454 4.15952 11.5244 4.47856 11.0779C5.04007 10.2998 5.74834 9.66201 6.60337 9.16452C7.4584 8.65428 8.32619 8.39916 9.20674 8.39916C10.0362 8.39916 10.6743 8.68617 11.121 9.2602C11.5804 9.82147 11.8101 10.7016 11.8101 11.9007C11.8101 12.9595 11.657 14.3945 11.3507 16.2059L13.2267 16.1102C14.0306 16.072 14.7198 16.0082 15.294 15.9189C15.5237 14.5157 15.8747 13.2018 16.3469 11.9773C16.8191 10.7527 17.4061 9.75768 18.108 8.99232C18.8099 8.22695 19.5947 7.84426 20.4625 7.84426C21.1006 7.84426 21.6047 8.09939 21.9748 8.60963C22.3448 9.10712 22.5299 9.76406 22.5299 10.5805C22.5299 13.744 20.9155 15.938 17.6868 17.1626C17.6486 17.6729 17.6294 18.2022 17.6294 18.7508C17.6294 20.0902 17.7953 21.0405 18.1271 21.6018C18.4589 22.163 18.9247 22.4437 19.5245 22.4437C20.0477 22.4437 20.5263 22.3097 20.9602 22.0418C21.3941 21.7612 21.8854 21.2892 22.4342 20.6259C22.5873 20.4473 22.7596 20.358 22.951 20.358ZM20.3668 9.50894C20.086 9.50894 19.7861 9.76406 19.4671 10.2743C19.1608 10.7846 18.8673 11.4798 18.5865 12.3599C18.3058 13.2401 18.0825 14.2032 17.9166 15.2492C18.9375 14.8282 19.6904 14.2287 20.1754 13.4506C20.6603 12.6725 20.9028 11.6711 20.9028 10.4465C20.9028 10.1531 20.8517 9.92351 20.7496 9.75768C20.6475 9.59185 20.5199 9.50894 20.3668 9.50894ZM24.292 24.7206C23.5007 24.7206 22.869 24.4336 22.3968 23.8596C21.9246 23.2856 21.6885 22.533 21.6885 21.6018C21.6885 20.5813 21.9246 19.6182 22.3968 18.7125C22.869 17.794 23.4943 17.0606 24.2728 16.5121C25.0641 15.9508 25.9 15.6702 26.7805 15.6702C27.0613 15.6702 27.2463 15.7276 27.3356 15.8424C27.4377 15.9444 27.5207 16.1358 27.5845 16.4164C27.8525 16.3654 28.1332 16.3398 28.4268 16.3398C29.0521 16.3398 29.3647 16.5631 29.3647 17.0095C29.3647 17.2774 29.269 17.9152 29.0776 18.923C28.7841 20.3899 28.6373 21.4104 28.6373 21.9844C28.6373 22.1758 28.682 22.3289 28.7713 22.4437C28.8734 22.5585 29.001 22.6159 29.1542 22.6159C29.3966 22.6159 29.6902 22.4628 30.0347 22.1566C30.3793 21.8377 30.8451 21.3275 31.4321 20.6259C31.5853 20.4473 31.7575 20.358 31.949 20.358C32.1149 20.358 32.2425 20.4346 32.3318 20.5876C32.4339 20.7407 32.4849 20.9512 32.4849 21.2191C32.4849 21.7293 32.3637 22.1248 32.1212 22.4054C31.598 23.056 31.0429 23.6045 30.4559 24.0509C29.8688 24.4974 29.3009 24.7206 28.7522 24.7206C28.331 24.7206 27.9418 24.5803 27.5845 24.2997C27.2399 24.0063 26.9783 23.6108 26.7996 23.1134C26.136 24.1849 25.3002 24.7206 24.292 24.7206ZM24.9811 22.7881C25.2619 22.7881 25.5299 22.6222 25.7851 22.2906C26.0403 21.9589 26.2254 21.5188 26.3402 20.9703L27.0485 17.4496C26.5125 17.4624 26.0148 17.6665 25.5554 18.0619C25.1087 18.4446 24.7514 18.9549 24.4834 19.5927C24.2153 20.2305 24.0813 20.9065 24.0813 21.6209C24.0813 22.0163 24.1579 22.3097 24.3111 22.5011C24.477 22.6924 24.7004 22.7881 24.9811 22.7881ZM32.2881 24.7206C31.8032 24.7206 31.4586 24.4655 31.2544 23.9553C31.063 23.445 30.9673 22.6286 30.9673 21.5061C30.9673 19.8478 31.2034 18.2724 31.6756 16.7799C31.7904 16.41 31.9755 16.1421 32.2307 15.9763C32.4987 15.7977 32.8688 15.7084 33.341 15.7084C33.5962 15.7084 33.7749 15.7403 33.877 15.8041C33.9791 15.8679 34.0301 15.9891 34.0301 16.1676C34.0301 16.3717 33.9344 16.831 33.743 17.5453C33.6154 18.0556 33.5133 18.502 33.4367 18.8847C33.3601 19.2674 33.2963 19.7394 33.2453 20.3006C33.6664 19.2036 34.1386 18.3107 34.6618 17.6218C35.185 16.933 35.6955 16.4419 36.1932 16.1485C36.7037 15.8551 37.1695 15.7084 37.5906 15.7084C38.4201 15.7084 38.8349 16.123 38.8349 16.9521C38.8349 17.118 38.7774 17.5198 38.6626 18.1576C38.5605 18.6678 38.5094 18.9867 38.5094 19.1143C38.5094 19.5608 38.669 19.784 38.988 19.784C39.3453 19.784 39.8047 19.5034 40.3662 18.9421C40.5322 18.7763 40.7044 18.6934 40.8831 18.6934C41.049 18.6934 41.1766 18.7699 41.2659 18.923C41.368 19.0633 41.4191 19.2546 41.4191 19.497C41.4191 19.969 41.2915 20.3389 41.0362 20.6068C40.6789 20.9767 40.2578 21.2956 39.7728 21.5635C39.3007 21.8186 38.7966 21.9462 38.2606 21.9462C37.5842 21.9462 37.0674 21.774 36.71 21.4295C36.3655 21.0851 36.1932 20.6195 36.1932 20.0327C36.1932 19.8414 36.2123 19.6501 36.2506 19.4587C36.2761 19.2036 36.2889 19.0314 36.2889 18.9421C36.2889 18.738 36.2187 18.636 36.0783 18.636C35.8869 18.636 35.6317 18.8528 35.3126 19.2865C35.0064 19.7075 34.7001 20.2687 34.3938 20.9703C34.0875 21.6719 33.8387 22.4118 33.6473 23.1899C33.5069 23.7894 33.341 24.1976 33.1495 24.4145C32.9709 24.6186 32.6838 24.7206 32.2881 24.7206ZM41.593 24.7206C41.0187 24.7206 40.5465 24.4591 40.1764 23.9361C39.8191 23.4004 39.6404 22.7371 39.6404 21.9462C39.6404 20.9895 39.7042 20.1157 39.8319 19.3248C39.9595 18.5211 40.17 17.6729 40.4636 16.7799C40.5912 16.3973 40.7698 16.123 40.9995 15.9572C41.2293 15.7913 41.593 15.7084 42.0907 15.7084C42.3714 15.7084 42.5628 15.7531 42.6649 15.8424C42.7798 15.9317 42.8372 16.0656 42.8372 16.2442C42.8372 16.3462 42.767 16.6906 42.6267 17.2774C42.499 17.7494 42.3969 18.1767 42.3204 18.5594C42.0651 19.8988 41.9375 20.7917 41.9375 21.2382C41.9375 21.5061 41.9694 21.6974 42.0332 21.8122C42.097 21.9143 42.1991 21.9653 42.3395 21.9653C42.5309 21.9653 42.767 21.774 43.0478 21.3913C43.3413 21.0086 43.6476 20.4282 43.9666 19.6501C44.2984 18.8719 44.6175 17.9152 44.9237 16.7799C45.0258 16.3973 45.179 16.123 45.3832 15.9572C45.6001 15.7913 45.9192 15.7084 46.3403 15.7084C46.6338 15.7084 46.838 15.7467 46.9528 15.8232C47.0677 15.887 47.1251 16.0146 47.1251 16.2059C47.1251 16.5248 46.9656 17.3986 46.6466 18.8273C46.2892 20.4601 46.1106 21.4678 46.1106 21.8505C46.1106 22.0929 46.1616 22.2842 46.2637 22.4245C46.3658 22.5521 46.4998 22.6159 46.6657 22.6159C46.9209 22.6159 47.2208 22.4628 47.5654 22.1566C47.9227 21.8377 48.3949 21.3275 48.9819 20.6259C49.1351 20.4473 49.3074 20.358 49.4988 20.358C49.6647 20.358 49.7923 20.4346 49.8816 20.5876C49.9837 20.7407 50.0348 20.9512 50.0348 21.2191C50.0348 21.7293 49.9135 22.1248 49.6711 22.4054C49.1223 23.0815 48.5289 23.6364 47.8908 24.0701C47.2655 24.5038 46.5509 24.7206 45.7469 24.7206C45.1343 24.7206 44.6813 24.4846 44.3878 24.0127C44.107 23.5407 43.9666 22.8774 43.9666 22.0227C43.7497 22.8901 43.4243 23.5598 42.9904 24.0318C42.5565 24.491 42.0907 24.7206 41.593 24.7206ZM59.547 20.358C59.7129 20.358 59.8405 20.4346 59.9298 20.5876C60.0319 20.7407 60.083 20.9512 60.083 21.2191C60.083 21.7293 59.9617 22.1248 59.7193 22.4054C59.145 23.107 58.5643 23.6682 57.9773 24.0892C57.3903 24.5102 56.6948 24.7206 55.8908 24.7206C54.9081 24.7206 54.1169 24.44 53.5171 23.8787C52.9173 23.3175 52.6172 22.5712 52.6172 21.64C52.6172 21.1425 52.8726 20.7854 53.3831 20.5685C53.9446 20.3261 54.3466 20.071 54.5891 19.8031C54.8316 19.5225 54.9528 19.1845 54.9528 18.789C54.9528 18.5594 54.9017 18.3872 54.7996 18.2724C54.7103 18.1576 54.5955 18.1002 54.4551 18.1002C54.1105 18.1002 53.7277 18.3489 53.3065 18.8464C52.8982 19.3439 52.5153 19.9881 52.158 20.779C51.8007 21.5571 51.5199 22.3607 51.3157 23.1899C51.1753 23.7894 51.0094 24.1976 50.818 24.4145C50.6394 24.6186 50.3522 24.7206 49.9566 24.7206C49.561 24.7206 49.2675 24.5803 49.0761 24.2997C48.8974 24.0063 48.7762 23.5598 48.7124 22.9603C48.6485 22.3607 48.6166 21.4806 48.6166 20.3198C48.6166 18.3553 48.8144 16.308 49.2101 14.1777C49.6184 12.0474 50.2118 10.2616 50.9903 8.82011C51.7815 7.36591 52.7259 6.63881 53.8234 6.63881C54.4104 6.63881 54.8826 6.89393 55.2399 7.40418C55.61 7.90167 55.7951 8.55223 55.7951 9.35587C55.7951 10.6442 55.4186 11.9836 54.6657 13.374C53.9127 14.7517 52.6876 16.3654 50.9903 18.215C50.952 18.8783 50.9329 19.5608 50.9329 20.2624C51.5454 18.6678 52.2473 17.5134 53.0385 16.7991C53.8298 16.072 54.5699 15.7084 55.2591 15.7084C55.8972 15.7084 56.4076 15.9253 56.7905 16.359C57.1861 16.7927 57.3839 17.3285 57.3839 17.9663C57.3839 18.6678 57.2052 19.312 56.8479 19.8988C56.4906 20.4856 55.878 21.0086 55.0102 21.4678C55.0613 21.8122 55.2144 22.0929 55.4696 22.3097C55.7376 22.5138 56.0567 22.6159 56.4268 22.6159C56.8224 22.6159 57.2052 22.4628 57.5753 22.1566C57.9454 21.8505 58.4303 21.3403 59.0301 20.6259C59.1833 20.4473 59.3556 20.358 59.547 20.358ZM53.4214 8.5331C53.1917 8.5331 52.9365 8.86475 52.6557 9.52807C52.3749 10.1786 52.1006 11.0652 51.8326 12.1877C51.5773 13.2975 51.3668 14.5093 51.2009 15.8232C51.9921 14.892 52.6429 13.8779 53.1534 12.7809C53.6766 11.6839 53.9382 10.6889 53.9382 9.79595C53.9382 9.38776 53.8936 9.07523 53.8042 8.85838C53.7149 8.64152 53.5873 8.5331 53.4214 8.5331ZM61.1815 14.4456C60.6455 14.4456 60.2435 14.3244 59.9755 14.082C59.7075 13.8269 59.5735 13.4761 59.5735 13.0296C59.5735 12.5832 59.7458 12.2132 60.0903 11.9198C60.4477 11.6137 60.8879 11.4606 61.4112 11.4606C61.8834 11.4606 62.2662 11.5754 62.5597 11.805C62.8532 12.0347 63 12.3599 63 12.7809C63 13.2911 62.8341 13.6993 62.5023 14.0055C62.1705 14.2989 61.7302 14.4456 61.1815 14.4456ZM59.3438 24.7206C58.9354 24.7206 58.6547 24.6377 58.5015 24.4719C58.3484 24.3061 58.2718 24.0446 58.2718 23.6874C58.2718 23.5853 58.2846 23.4067 58.3101 23.1516C58.5143 20.8173 58.8525 18.6934 59.3246 16.7799C59.4267 16.3845 59.5926 16.1102 59.8224 15.9572C60.0648 15.7913 60.4477 15.7084 60.9709 15.7084C61.5196 15.7084 61.794 15.9317 61.794 16.3781C61.794 16.4419 61.7813 16.5631 61.7557 16.7417C61.1815 19.4715 60.8369 21.7612 60.722 23.6108C60.6965 24.019 60.5753 24.3061 60.3583 24.4719C60.1414 24.6377 59.8032 24.7206 59.3438 24.7206Z" fill="#44280E"/>
</g>
<defs>
<filter id="filter0_d_40_309" x="0" y="2.63881" width="67" height="26.1201" filterUnits="userSpaceOnUse" color-interpolation-filters="sRGB">
<feFlood flood-opacity="0" result="BackgroundImageFix"/>
<feColorMatrix in="SourceAlpha" type="matrix" values="0 0 0 0 0 0 0 0 0 0 0 0 0 0 0 0 0 0 127 0" result="hardAlpha"/>
<feOffset/>
<feGaussianBlur stdDeviation="2"/>
<feComposite in2="hardAlpha" operator="out"/>
<feColorMatrix type="matrix" values="0 0 0 0 0 0 0 0 0 0 0 0 0 0 0 0 0 0 0.12 0"/>
<feBlend mode="normal" in2="BackgroundImageFix" result="effect1_dropShadow_40_309"/>
<feBlend mode="normal" in="SourceGraphic" in2="effect1_dropShadow_40_309" result="shape"/>
</filter>
</defs>
</svg>
